<?xml version="1.0" encoding="utf-8"?>
<!-- Generator: Adobe Illustrator 21.0.0, SVG Export Plug-In . SVG Version: 6.00 Build 0)  -->
<svg version="1.1" id="Layer_1" xmlns="http://www.w3.org/2000/svg" xmlns:xlink="http://www.w3.org/1999/xlink" x="0px" y="0px"
	 viewBox="0 0 600 600" style="enable-background:new 0 0 600 600;" xml:space="preserve">
<style type="text/css">
	.st0{fill:#8F0C00;stroke:#FFC76F;stroke-miterlimit:10;}
	.st1{fill:none;stroke:#940C00;stroke-width:16;stroke-miterlimit:10;}
</style>
<path class="st0" d="M440.8,165.4c-4.2-21-17.7-29.5-37.9-37.9C383,119.2,335.2,109.2,300,109c-35.2,0.3-83,10.2-102.9,18.5
	c-20.2,8.4-33.7,16.8-37.9,37.9L144.1,282v160.8h26.1V468c0,30.7,45,30.7,45,0v-25.2h83h0.3h86.3V468c0,30.7,45,30.7,45,0v-25.2
	h26.1V282L440.8,165.4z M235.9,138.4h62.6h65.7c12.6,0,12.6,18.9,0,18.9h-65.8h-62.5C223.2,157.4,223.2,138.4,235.9,138.4z
	 M192.7,392.4c-11.9,0-21.6-9.7-21.6-21.6s9.7-21.6,21.6-21.6s21.6,9.7,21.6,21.6S204.6,392.4,192.7,392.4z M298.5,294.3H184
	c-11.2,0-13.6-8.1-12.5-16.2l11.8-84.6c1.6-10.3,5.1-17.1,18.4-17.1h96.5h99.9c13.3,0,16.8,6.8,18.4,17.1l11.8,84.6
	c1.1,8.1-1.2,16.2-12.5,16.2H298.5z M407.3,392.4c-11.9,0-21.6-9.7-21.6-21.6s9.7-21.6,21.6-21.6s21.6,9.7,21.6,21.6
	S419.2,392.4,407.3,392.4z"/>
<circle class="st1" cx="300" cy="308" r="249.3"/>
</svg>
