<?xml version="1.0" encoding="utf-8"?>
<!-- Generator: Adobe Illustrator 21.0.0, SVG Export Plug-In . SVG Version: 6.00 Build 0)  -->
<svg version="1.1" id="Capa_1" xmlns="http://www.w3.org/2000/svg" xmlns:xlink="http://www.w3.org/1999/xlink" x="0px" y="0px"
	 viewBox="0 0 386 425.2" enable-background="new 0 0 386 425.2" xml:space="preserve">
<g>
	<g>
		<path fill="#EF3B2D" d="M193.2,39.3c-0.1,0-0.2,0-0.3,0c-0.1,0-0.2,0-0.3,0C129.4,39.4,78.3,90.7,78.4,153.8
			c0,13.7,6.9,45.9,22.4,73.4c19.4,34.4,83.1,147.6,92.1,158.3c0,0,0.2,0.5,0.3,0.4c0.1,0.1,0.3-0.4,0.3-0.4
			c9.1-10.7,71.9-124.4,91.9-158.5c16.6-28.3,22.2-59.7,22.2-73.4C307.6,90.4,256.3,39.3,193.2,39.3z"/>
		<circle fill="#FFFFFF" cx="191" cy="154.1" r="88.2"/>
	</g>
	<path fill="#EF3B2D" d="M227.1,93.7l-71.5,0c-8.7,0-15.9,7.1-15.9,15.9l0,74.1c0,8.8,7.1,15.9,15.9,15.9h0.3v7.9
		c0,4.2,3.4,7.6,7.6,7.6c4.2,0,7.6-3.4,7.6-7.6l0-7.9l44,0v7.9c0,4.2,3.4,7.6,7.6,7.6c4.2,0,7.6-3.4,7.6-7.6v-8.3
		c7.2-1.5,12.6-7.9,12.6-15.5l0-74.1C242.9,100.8,235.8,93.7,227.1,93.7z M151.6,117.2c0-6.8,5.5-12.3,12.3-12.3l55.4,0
		c6.8,0,12.3,5.5,12.3,12.3l0,33c0,6.8-5.5,12.3-12.3,12.3l-55.4,0c-6.8,0-12.3-5.5-12.3-12.3V117.2z M172.8,188.6l-16.8,0
		c-3.9,0-7.1-3.2-7.1-7c0-3.9,3.2-7.1,7.1-7.1l16.8,0c3.9,0,7.1,3.2,7.1,7.1C179.9,185.4,176.7,188.5,172.8,188.6z M227.5,188.5
		l-16.8,0c-3.9,0-7-3.2-7-7c0-3.9,3.1-7.1,7-7.1h16.8c3.9,0,7.1,3.2,7.1,7.1C234.6,185.4,231.4,188.5,227.5,188.5z"/>
</g>
</svg>
