<?xml version="1.0" encoding="utf-8"?>
<!-- Svg Vector Icons : http://www.onlinewebfonts.com/icon -->
<!DOCTYPE svg PUBLIC "-//W3C//DTD SVG 1.1//EN" "http://www.w3.org/Graphics/SVG/1.1/DTD/svg11.dtd">
<svg version="1.1" xmlns="http://www.w3.org/2000/svg" xmlns:xlink="http://www.w3.org/1999/xlink" x="0px" y="0px" viewBox="0 0 1000 1000" enable-background="new 0 0 1000 1000" xml:space="preserve">
<metadata> Svg Vector Icons : http://www.onlinewebfonts.com/icon </metadata>
<g><path d="M420.5,802.7c-218.6,0-396.4-177.8-396.4-396.4C24.1,187.8,201.9,10,420.5,10c218.6,0,396.4,177.8,396.4,396.3C816.9,624.9,639.1,802.7,420.5,802.7z M421.1,76.4c-182,0-330,148-330,329.9c0,182,148,330.1,330,330.1c182,0,330.1-148.1,330.1-330.1C751.2,224.4,603.1,76.4,421.1,76.4z"/><path d="M941.1,990c-8.6,0-17.2-3.2-24-9.6L639.3,721.1c-14-13.3-14.6-35.4-1.4-49.3c13.3-13.9,35.4-14.6,49.3-1.4L965,929.8c14,13.2,14.5,35.3,1.3,49.3C959.5,986.3,950.3,990,941.1,990z"/></g>
</svg>