<?xml version="1.0" encoding="utf-8"?>
<!-- Generator: Adobe Illustrator 21.0.0, SVG Export Plug-In . SVG Version: 6.00 Build 0)  -->
<svg version="1.1" id="Layer_1" xmlns="http://www.w3.org/2000/svg" xmlns:xlink="http://www.w3.org/1999/xlink" x="0px" y="0px"
	 viewBox="0 0 512 512" style="enable-background:new 0 0 512 512;" xml:space="preserve">
<style type="text/css">
	.st0{fill:#90009A;}
</style>
<g>
	<g>
		<g>
			<path class="st0" d="M418,45.3H94c-51.8,0-94,42.2-94,94c0,11.7,9.5,21.2,21.2,21.2h25.3v263.7H21.2C9.5,424.3,0,433.8,0,445.5
				s9.5,21.2,21.2,21.2h93c11.7,0,21.2-9.5,21.2-21.2s-9.5-21.2-21.2-21.2H88.9V160.5h401.9c11.7,0,21.2-9.5,21.2-21.2
				C512,87.5,469.8,45.3,418,45.3z M47,118.1c8.1-17.9,26.1-30.4,47.1-30.4h324c20.9,0,39,12.5,47.1,30.4H47z"/>
			<path class="st0" d="M463.1,317.2H156.7c-11.7,0-21.2,9.5-21.2,21.2v53.2c0,11.7,9.5,21.2,21.2,21.2h29.6v32.8
				c0,11.7,9.5,21.2,21.2,21.2s21.2-9.5,21.2-21.2v-32.8h162.4v32.8c0,11.7,9.5,21.2,21.2,21.2s21.2-9.5,21.2-21.2v-32.8h29.6
				c11.7,0,21.2-9.5,21.2-21.2v-53.2C484.3,326.7,474.8,317.2,463.1,317.2z M441.9,370.3h-264v-10.8h264V370.3z"/>
		</g>
	</g>
</g>
</svg>
